<!-- icon666.com - MILLIONS vector ICONS FREE --><svg viewBox="0 0 512.01574 512" xmlns="http://www.w3.org/2000/svg"><path d="m156.648438 174.128906h-35.683594c-9.054688 0-16.382813-7.332031-16.382813-16.382812 0-9.054688 7.339844-16.382813 16.382813-16.382813h35.683594c9.050781 0 16.382812 7.328125 16.382812 16.382813 0 9.050781-7.339844 16.382812-16.382812 16.382812zm0 0"></path><path d="m443.957031 388.710938h-297.488281c-7.089844 0-13.382812-4.5625-15.574219-11.308594l-82.605469-253.761719-42.6875-37.328125c-6.816406-5.957031-7.507812-16.3125-1.542968-23.109375 5.953125-6.824219 16.300781-7.527344 23.125-1.5625l46.078125 40.300781c2.21875 1.941406 3.878906 4.453125 4.792969 7.257813l80.316406 246.746093h272.683594l43.777343-181.816406h-27.953125c-9.050781 0-16.382812-7.332031-16.382812-16.382812 0-9.054688 7.332031-16.382813 16.382812-16.382813h48.75c5.011719 0 9.769532 2.296875 12.867188 6.238281 3.113281 3.941407 4.242187 9.085938 3.0625 13.96875l-51.660156 214.582032c-1.777344 7.375-8.359376 12.558594-15.941407 12.558594zm0 0"></path><path d="m410.5 313.558594h-235.027344c-9.054687 0-16.382812-7.332032-16.382812-16.382813s7.339844-16.382812 16.382812-16.382812h235.019532c9.050781 0 16.390624 7.332031 16.390624 16.382812s-7.339843 16.382813-16.382812 16.382813zm0 0"></path><path d="m170.296875 511.835938c-27.304687 0-49.519531-22.195313-49.519531-49.484376 0-27.296874 22.214844-49.503906 49.519531-49.503906 9.054687 0 16.382813 7.332032 16.382813 16.382813 0 9.054687-7.339844 16.382812-16.382813 16.382812-9.238281 0-16.746094 7.515625-16.746094 16.746094 0 9.222656 7.515625 16.730469 16.746094 16.730469 9.222656 0 16.722656-7.507813 16.722656-16.730469 0-9.050781 7.335938-16.382813 16.382813-16.382813 9.042968 0 16.382812 7.332032 16.382812 16.382813.007813 27.28125-22.199218 49.476563-49.488281 49.476563zm0 0"></path><path d="m404.757812 511.835938c-27.289062 0-49.492187-22.195313-49.492187-49.484376 0-27.296874 22.203125-49.503906 49.492187-49.503906 9.054688 0 16.394532 7.332032 16.394532 16.382813 0 9.054687-7.339844 16.382812-16.394532 16.382812-9.21875 0-16.726562 7.515625-16.726562 16.746094 0 9.222656 7.507812 16.730469 16.726562 16.730469 9.230469 0 16.746094-7.507813 16.746094-16.730469 0-9.050781 7.332032-16.382813 16.382813-16.382813 9.054687 0 16.394531 7.332032 16.394531 16.382813 0 27.28125-22.214844 49.476563-49.523438 49.476563zm0 0"></path><path d="m266.285156 263.183594c-7.835937 0-15.636718-1-23.304687-3.070313-29.339844-7.851562-52.378907-30.6875-60.125-59.582031-9.167969-34.203125 3.621093-71.851562 35.0625-103.304688l73.296875-73.3125c34.460937-34.441406 78.207031-27.875 101.863281-4.222656 23.636719 23.632813 29.351563 65.785156-5.472656 100.628906l-75.675781 75.648438c-23.109376 23.109375-53.914063 19.941406-70.339844 3.515625-15.132813-15.125-19.855469-42.964844 5.519531-68.347656l69.371094-69.34375c6.402343-6.398438 16.785156-6.410157 23.171875.007812 6.402344 6.398438 6.402344 16.773438-.007813 23.164063l-69.371093 69.34375c-8.609376 8.617187-10.679688 16.835937-5.511719 22.003906 4.109375 4.097656 13.898437 6.582031 24.003906-3.515625l75.667969-75.648437c22.050781-22.054688 16.738281-43.035157 5.484375-54.277344-12.363281-12.363282-35.003907-16.304688-55.53125 4.222656l-73.296875 73.316406c-23.285156 23.277344-32.726563 48.722656-26.585938 71.636719 4.800782 17.898437 18.609375 31.503906 36.953125 36.421875 23.394531 6.265625 49.714844-3.019531 72.1875-25.507812l66.996094-66.984376c6.40625-6.398437 16.773437-6.398437 23.171875 0 6.398438 6.40625 6.398438 16.78125-.011719 23.171876l-66.992187 66.984374c-24.175782 24.203126-52.566406 37.050782-80.523438 37.050782zm0 0"></path></svg>